<svg width="74" height="74" viewBox="0 0 74 74" fill="none" xmlns="http://www.w3.org/2000/svg">
<path d="M65.913 23.5329C73.7969 36.1499 69.96 52.7691 57.343 60.653C47.3747 66.882 34.9076 65.7947 26.2246 58.8408L27.5149 58.0345C35.7164 64.3394 47.2952 65.2442 56.5835 59.4405C68.5296 51.9759 72.1624 36.2403 64.6978 24.2943C59.5767 16.0989 51.4195 11.7367 42.4074 12.2654C39.9432 12.4095 37.8554 13.1234 37.8554 13.1234C37.8554 13.1234 37.7466 12.3733 37.5895 11.9147C48.626 8.9329 59.0505 12.5507 65.9131 23.5329H65.913ZM16.7565 43.6204L18.05 42.8122C16.8537 36.8234 17.7002 31.045 20.6498 25.7719C20.6498 25.7719 19.9233 24.9805 19.4973 24.7559C16.3484 30.4548 15.3338 37.1799 16.7566 43.6205L16.7565 43.6204ZM50.5259 45.3438C50.3756 45.129 50.2841 44.7206 50.252 44.1186C50.2303 43.3237 50.2198 42.6467 50.2198 42.0876V34.0284C50.2198 31.9116 49.4699 30.4715 47.9699 29.7084C46.4696 28.9457 44.7536 28.5641 42.8219 28.5641C39.8537 28.5641 37.7602 29.3377 36.5406 30.8853C35.7743 31.8742 35.3427 33.1365 35.2456 34.6732H39.6784C39.7872 33.9962 40.0047 33.459 40.3318 33.0615C40.789 32.5243 41.568 32.2556 42.6682 32.2556C43.6485 32.2556 44.3918 32.3925 44.8984 32.6665C45.4049 32.9405 45.6582 33.4376 45.6582 34.1575C45.6582 34.7486 45.3278 35.1838 44.6679 35.4631C44.2996 35.6242 43.688 35.7588 42.8331 35.8662L41.258 36.0594C39.4719 36.285 38.1187 36.6614 37.1984 37.1879C35.5204 38.1551 34.6817 39.7183 34.6817 41.8784C34.6817 43.5439 35.2028 44.8307 36.2461 45.7388C37.2891 46.6466 38.61 47.1007 40.21 47.1007C41.4638 47.1007 42.5879 46.816 43.5825 46.2467C44.4145 45.7631 45.1499 45.1774 45.7876 44.4898C45.8197 44.8875 45.8627 45.242 45.9165 45.5538C45.9701 45.8654 46.067 46.1984 46.2067 46.5531H51.2036V45.8761C50.9018 45.7363 50.6762 45.5593 50.5257 45.3442L50.5259 45.3438ZM45.6416 39.7185C45.6091 41.2553 45.1701 42.3135 44.3242 42.894C43.4784 43.4744 42.5538 43.7644 41.5501 43.7644C40.917 43.7644 40.3797 43.5899 39.9378 43.2406C39.4957 42.8915 39.2749 42.3245 39.2749 41.54C39.2749 40.659 39.6365 40.0087 40.36 39.5897C40.7872 39.3427 41.4914 39.133 42.4716 38.9611L43.5171 38.7678C44.0401 38.6709 44.451 38.5664 44.7506 38.4534C45.0612 38.3352 45.3594 38.1867 45.6409 38.0101V39.7185H45.6416ZM32.6082 15.8572C32.6082 12.2083 29.6502 9.25 26.0011 9.25C22.3518 9.25 19.3943 12.2083 19.3943 15.8572C19.3943 19.5062 22.3524 22.4645 26.0014 22.4645C29.6504 22.4645 32.6084 19.5062 32.6084 15.8572H32.6082ZM45.8791 18.2933C42.9574 17.8308 40.0838 18.0337 37.413 18.7902C36.6833 21.6071 34.9154 24.1601 32.2528 25.8235C30.2612 27.068 28.0416 27.6446 25.856 27.6137C24.5798 29.7317 23.6822 32.126 23.2718 34.7186C22.6077 38.9106 23.3146 43.0028 25.0599 46.5395L21.7367 48.6161C20.6535 48.0415 19.2995 48.0555 18.198 48.7708L5.57971 56.9651C3.96313 58.0151 3.50366 60.1765 4.55339 61.7929C5.60327 63.4095 7.76415 63.8686 9.38059 62.8189L21.9992 54.6243C23.1126 53.9013 23.6769 52.6509 23.5773 51.4142L26.7897 49.407C29.7617 53.5069 34.2999 56.4714 39.6966 57.3262C50.4752 59.0332 60.5967 51.6795 62.3039 40.9009C64.0112 30.1223 56.6576 20.0008 45.8791 18.2933ZM56.7673 40.2999C55.5449 48.0182 48.2972 53.2839 40.5793 52.0615C32.8613 50.839 27.5953 43.5911 28.8177 35.8731C30.0402 28.1551 37.2881 22.8891 45.0061 24.1116C52.7241 25.334 57.9896 32.582 56.7672 40.2999H56.7673Z" fill="#35393C"/>
</svg>
